<svg xmlns="http://www.w3.org/2000/svg" version="1.1" xmlns:xlink="http://www.w3.org/1999/xlink" xmlns:svgjs="http://svgjs.dev/svgjs" width="1000" height="280" viewBox="0 0 1000 280"><g transform="matrix(1,0,0,1,-0.6060606060606233,-0.06690044913705151)"><svg viewBox="0 0 396 111" data-background-color="#000000" preserveAspectRatio="xMidYMid meet" height="280" width="1000" xmlns="http://www.w3.org/2000/svg" xmlns:xlink="http://www.w3.org/1999/xlink"><g id="tight-bounds" transform="matrix(1,0,0,1,0.2400000000000091,0.026521596789535806)"><svg viewBox="0 0 395.52 110.94694967077491" height="110.94694967077491" width="395.52"><g><svg viewBox="0 0 655.5867359788067 183.8980294333239" height="110.94694967077491" width="395.52"><g transform="matrix(1,0,0,1,260.06673597880666,25.415718973780656)"><svg viewBox="0 0 395.52 133.0665914857626" height="133.0665914857626" width="395.52"><g id="textblocktransform"><svg viewBox="0 0 395.52 133.0665914857626" height="133.0665914857626" width="395.52" id="textblock"><g><svg viewBox="0 0 395.52 133.0665914857626" height="133.0665914857626" width="395.52"><g transform="matrix(1,0,0,1,0,0)"><svg width="395.52" viewBox="2 -35.29999923706055 106.4000015258789 35.79999923706055" height="133.0665914857626" data-palette-color="#a437db"><path d="M7.85 0L2.2 0Q2 0 2-0.25L2-0.25 2.05-34.6Q2.05-34.8 2.3-34.8L2.3-34.8 7.85-34.8Q8.1-34.8 8.1-34.6L8.1-34.6 8.05-21 15.55-21 15.55-34.6Q15.55-34.8 15.75-34.8L15.75-34.8 21.3-34.8Q21.55-34.8 21.55-34.6L21.55-34.6 21.65-0.25Q21.65 0 21.4 0L21.4 0 15.8 0Q15.55 0 15.55-0.25L15.55-0.25 15.55-14.95 8.05-14.95 8.05-0.25Q8.05 0 7.85 0L7.85 0ZM24.05-0.25L24.05-0.25 30.25-34.6Q30.3-34.8 30.5-34.8L30.5-34.8 37.75-34.8Q37.95-34.8 38-34.6L38-34.6 43.95-0.25Q44 0 43.75 0L43.75 0 38.2 0Q38 0 37.95-0.25L37.95-0.25 37.4-3.9 30.6-3.9 30.05-0.25Q30 0 29.8 0L29.8 0 24.25 0Q24.05 0 24.05-0.25ZM33.85-23.3L31.6-9.25 36.4-9.25 34.35-23.3 34.05-25.15 33.85-23.3ZM54.59 0.5L54.59 0.5Q51.89 0.5 49.67-0.88 47.45-2.25 46.12-4.53 44.8-6.8 44.8-9.55L44.8-9.55 44.8-11.85Q44.8-12.1 45.05-12.1L45.05-12.1 50.64-12.1Q50.84-12.1 50.84-11.85L50.84-11.85 50.84-9.55Q50.84-7.9 51.95-6.73 53.05-5.55 54.59-5.55L54.59-5.55Q56.14-5.55 57.24-6.75 58.34-7.95 58.34-9.55L58.34-9.55Q58.34-11.4 55.95-12.75L55.95-12.75Q55.14-13.2 53.45-14.15 51.74-15.1 50.24-15.95L50.24-15.95Q47.49-17.55 46.17-19.98 44.84-22.4 44.84-25.45L44.84-25.45Q44.84-28.25 46.2-30.48 47.55-32.7 49.77-34 51.99-35.3 54.59-35.3L54.59-35.3Q57.24-35.3 59.47-33.98 61.7-32.65 63.02-30.43 64.34-28.2 64.34-25.45L64.34-25.45 64.34-21.35Q64.34-21.15 64.14-21.15L64.14-21.15 58.55-21.15Q58.34-21.15 58.34-21.35L58.34-21.35 58.3-25.45Q58.3-27.2 57.2-28.3 56.09-29.4 54.59-29.4L54.59-29.4Q53.05-29.4 51.95-28.23 50.84-27.05 50.84-25.45L50.84-25.45Q50.84-23.8 51.55-22.7 52.24-21.6 54.09-20.6L54.09-20.6Q54.34-20.45 55.07-20.08 55.8-19.7 56.64-19.23 57.49-18.75 58.17-18.4 58.84-18.05 58.99-17.95L58.99-17.95Q61.5-16.55 62.95-14.53 64.39-12.5 64.39-9.55L64.39-9.55Q64.39-6.7 63.07-4.42 61.75-2.15 59.52-0.83 57.3 0.5 54.59 0.5ZM73.34 0L68.34 0Q67.94 0 67.94-0.35L67.94-0.35 67.89-34.4Q67.89-34.8 68.29-34.8L68.29-34.8 72.79-34.8 81.24-15.1 80.99-34.4Q80.99-34.8 81.44-34.8L81.44-34.8 86.39-34.8Q86.69-34.8 86.69-34.4L86.69-34.4 86.74-0.3Q86.74 0 86.49 0L86.49 0 82.09 0 73.44-18.4 73.79-0.4Q73.79 0 73.34 0L73.34 0ZM101.49 0L95.74 0Q95.59 0 95.59-0.2L95.59-0.2 95.64-14.4 88.94-34.6Q88.89-34.8 89.09-34.8L89.09-34.8 94.64-34.8Q94.89-34.8 94.94-34.6L94.94-34.6 98.64-21.15 102.39-34.6Q102.44-34.8 102.64-34.8L102.64-34.8 108.24-34.8Q108.44-34.8 108.39-34.6L108.39-34.6 101.64-14.6 101.69-0.2Q101.69 0 101.49 0L101.49 0Z" opacity="1" transform="matrix(1,0,0,1,0,0)" fill="#a437db" class="undefined-text-0" data-fill-palette-color="primary" id="text-0"></path></svg></g></svg></g></svg></g></svg></g><g><svg viewBox="0 0 228.6529073272138 183.8980294333239" height="183.8980294333239" width="228.6529073272138"><g><svg xmlns="http://www.w3.org/2000/svg" xmlns:xlink="http://www.w3.org/1999/xlink" version="1.1" x="0" y="0" viewBox="0 9.78600025177002 100.0003433227539 80.42699432373047" enable-background="new 0 0 100 100" xml:space="preserve" width="228.6529073272138" height="183.8980294333239" class="icon-icon-0" data-fill-palette-color="accent" id="icon-0"><path d="M49.942 52.994c13.552-0.488 27.103-0.977 40.653-1.465-2.527-4.177-3.159-7.831-7.989-8.461-7.229-0.94-14.458-1.883-21.688-2.826-14.023-1.827-28.05-3.654-42.075-5.48C20.101 36.792 39.724 53.361 49.942 52.994z" fill="#8b3c7f" data-fill-palette-color="accent"></path><path d="M0 9.786c4.391 7.257 26.615 23.072 32.953 23.886 17.33 2.231 34.657 4.46 51.986 6.688-3.393-5.607-4.18-9.35-10.312-10.959-8.904-2.341-17.812-4.683-26.717-7.023C31.94 18.182 15.97 13.984 0 9.786z" fill="#8b3c7f" data-fill-palette-color="accent"></path><path d="M63.108 66.207c10.413-2.219 20.826-4.439 31.241-6.66-2.028-3.346-2.034-5.359-5.827-5.189-6.158 0.273-12.314 0.549-18.471 0.822-11.343 0.506-22.686 1.014-34.028 1.518C37.298 58.064 54.94 67.947 63.108 66.207z" fill="#8b3c7f" data-fill-palette-color="accent"></path><path d="M87.682 90.213c5.725-3.719 7.262-7.721 10.519-13.807 3.651-6.824 1.257-7.844-2.821-14.596-0.417-0.688-5.842 0.232-6.453 0.904-0.745 0.818-0.248 5.455-0.294 6.496C88.315 76.211 87.998 83.213 87.682 90.213z" fill="#8b3c7f" data-fill-palette-color="accent"></path><path d="M86.35 63.447c-3.795 0.809-8.604 0.191-9.572 4.229-1.373 5.736-2.746 11.475-4.12 17.211C81.904 82.678 86.028 71.582 86.35 63.447z" fill="#8b3c7f" data-fill-palette-color="accent"></path><path d="M74.666 66.121c-9.148 1.953-8.956 4.611-12.879 13.18C68.007 78.711 73.811 71.941 74.666 66.121z" fill="#8b3c7f" data-fill-palette-color="accent"></path></svg></g></svg></g></svg></g><defs></defs></svg><rect width="395.52" height="110.94694967077491" fill="none" stroke="none" visibility="hidden"></rect></g></svg></g></svg>